<?xml version="1.0" standalone="no"?>
<!DOCTYPE svg PUBLIC "-//W3C//DTD SVG 20010904//EN"
 "http://www.w3.org/TR/2001/REC-SVG-20010904/DTD/svg10.dtd">
<svg version="1.0" xmlns="http://www.w3.org/2000/svg"
 width="1024.000000pt" height="1024.000000pt" viewBox="0 0 1024.000000 1024.000000"
 preserveAspectRatio="xMidYMid meet">

<g transform="translate(0.000000,1024.000000) scale(0.100000,-0.100000)"
fill="#000000" stroke="none">
<path d="M5790 9082 c0 -5 26 -20 58 -32 213 -82 596 -264 749 -356 73 -44
161 -103 277 -184 103 -73 266 -212 389 -334 119 -117 131 -126 166 -126 112
0 131 120 31 201 -23 19 -72 59 -109 89 -318 264 -648 468 -947 583 -147 57
-283 103 -334 112 -17 3 -58 12 -92 20 -35 8 -79 17 -98 20 -19 3 -47 8 -62
11 -16 3 -28 1 -28 -4z"/>
<path d="M4771 9030 c-321 -65 -575 -228 -740 -476 l-53 -81 -46 13 c-95 29
-239 11 -328 -41 -66 -38 -154 -131 -192 -202 -135 -254 -32 -656 216 -843 63
-47 192 -110 226 -110 9 0 16 -2 16 -5 0 -3 -25 -54 -56 -113 -51 -97 -68
-118 -179 -227 -157 -154 -224 -234 -328 -387 -173 -257 -340 -649 -406 -953
-27 -127 -61 -350 -61 -404 l0 -60 38 -10 c20 -5 51 -13 67 -17 87 -20 226
-114 313 -210 l61 -67 -5 79 c-6 106 27 394 45 394 3 0 6 -100 6 -223 1 -239
8 -300 57 -487 116 -445 359 -807 663 -990 205 -123 320 -162 595 -201 79 -11
449 -8 550 5 19 2 60 7 90 11 30 3 111 17 180 30 359 69 554 70 749 4 210 -72
310 -83 456 -53 125 26 224 72 367 172 l78 54 52 -30 c112 -63 129 -72 145
-72 9 0 136 40 282 89 534 180 680 236 663 253 -5 5 -69 39 -143 76 -74 38
-295 152 -492 256 -198 103 -369 191 -382 196 -18 7 -55 -1 -147 -31 -67 -22
-126 -43 -131 -48 -7 -7 101 -43 183 -60 38 -8 149 -64 508 -256 l223 -120
-263 -87 c-145 -48 -273 -87 -286 -88 -25 0 -97 33 -107 51 -4 6 2 20 13 32
79 87 65 228 -30 297 -64 47 -135 64 -235 57 -101 -7 -118 -2 -229 76 -119 83
-181 102 -339 101 -108 0 -150 -5 -245 -28 -284 -69 -450 -102 -550 -110 -41
-3 -115 -8 -165 -11 -307 -21 -695 54 -951 183 -111 56 -224 130 -224 147 0
15 211 -16 534 -80 194 -38 402 -65 502 -65 75 0 74 -2 44 104 -25 92 -29 120
-37 306 l-6 155 78 -73 c165 -154 340 -263 529 -328 77 -27 81 -27 175 -16
271 34 294 36 380 23 46 -7 91 -16 100 -21 46 -24 267 102 475 271 136 111
326 316 433 466 313 441 456 782 479 1142 8 137 -14 341 -52 464 -5 15 4 17
93 17 54 0 196 3 316 7 176 5 217 9 217 20 0 20 41 12 142 -27 142 -55 251
-51 384 15 131 64 281 234 320 360 21 71 18 74 -28 26 -114 -118 -225 -143
-392 -90 -32 11 -87 24 -121 29 -67 11 -118 1 -213 -42 -43 -20 -61 -21 -219
-19 -122 2 -173 0 -173 -8 0 -8 -61 -11 -203 -11 l-202 0 -80 57 c-316 223
-354 239 -454 189 -26 -13 -67 -39 -92 -57 -25 -19 -81 -54 -126 -77 -46 -24
-89 -53 -98 -65 -19 -27 -19 -71 0 -91 8 -8 15 -17 15 -19 0 -3 -64 -8 -142
-12 -157 -7 -180 -12 -283 -61 -38 -18 -82 -36 -97 -39 -16 -4 -28 -10 -28
-14 1 -3 58 -25 128 -48 117 -40 135 -43 232 -43 l104 0 -30 -32 c-84 -91 -96
-138 -45 -189 31 -31 53 -35 97 -19 15 6 28 9 30 7 2 -1 -4 -23 -13 -48 -19
-53 -13 -90 23 -126 22 -22 32 -25 75 -21 56 6 78 22 121 88 l29 45 -8 -50
c-4 -27 -7 -79 -6 -115 9 -356 10 -330 -19 -390 -131 -265 -494 -501 -770
-500 -166 0 -316 98 -475 309 -48 63 -164 257 -242 404 -47 87 -50 98 -34 103
219 69 375 195 469 379 48 94 70 146 78 191 28 152 29 166 17 277 -7 61 -20
141 -29 176 -12 46 -14 65 -6 68 6 2 42 25 80 51 125 86 206 214 251 397 21
83 24 114 19 186 -7 108 -32 190 -80 263 -60 89 -124 126 -235 135 l-75 6 -44
62 c-98 142 -268 295 -421 380 -107 60 -242 110 -369 137 -105 22 -146 26
-290 25 -120 0 -193 -6 -261 -19z m495 -530 c82 -28 173 -87 240 -157 30 -31
55 -55 58 -52 2 2 10 18 19 34 26 50 99 116 162 146 130 63 267 29 380 -92 99
-107 135 -209 135 -381 0 -72 -6 -129 -20 -183 -19 -74 -32 -102 -89 -190 -14
-22 -26 -41 -27 -43 -2 -3 -104 70 -194 138 l-25 19 36 0 c19 1 59 13 88 27
181 91 180 378 -1 468 -64 32 -108 33 -173 2 -71 -33 -135 -113 -150 -186 -19
-100 -4 -213 44 -335 19 -48 21 -50 56 -47 55 5 97 -14 149 -65 64 -65 106
-151 106 -220 0 -29 10 -91 22 -136 16 -62 22 -113 22 -209 1 -69 -2 -130 -6
-134 -5 -4 -38 5 -75 19 -98 38 -158 47 -306 47 -140 0 -215 -14 -349 -63
-102 -37 -256 -136 -243 -157 2 -4 33 -2 68 6 35 7 75 15 88 18 13 2 58 11 99
20 164 33 230 39 382 33 139 -5 228 -19 228 -37 0 -17 -81 -131 -119 -167 -58
-56 -162 -110 -256 -135 -66 -17 -98 -20 -180 -15 -163 10 -276 57 -376 158
-160 163 -172 399 -32 618 34 54 159 191 173 191 4 0 12 -17 19 -37 13 -42 33
-70 71 -96 39 -27 54 -22 31 11 -57 78 -49 201 17 274 50 55 86 72 155 70 43
-1 57 2 57 13 0 7 -4 16 -9 20 -5 3 -13 20 -17 38 -3 17 -13 45 -20 62 -7 16
-28 71 -45 120 -78 214 -191 329 -351 354 -151 25 -301 -53 -366 -191 -21 -46
-30 -176 -14 -218 9 -23 10 -22 17 17 4 24 11 45 16 49 5 3 9 13 9 22 0 9 11
30 24 47 l24 29 0 -41 c2 -123 63 -210 179 -252 75 -27 146 -17 241 35 34 19
65 34 68 34 18 0 -62 -112 -116 -162 -97 -90 -188 -128 -305 -128 -243 0 -398
188 -382 461 6 106 13 139 42 205 82 185 247 313 445 344 80 13 204 4 276 -20z
m-1378 -235 c69 -29 149 -126 176 -213 6 -17 -6 -9 -43 28 -52 52 -118 89
-158 90 -87 1 -153 -80 -153 -185 0 -57 27 -165 41 -165 4 0 10 15 13 34 7 36
28 60 62 70 29 9 39 -7 54 -79 16 -78 31 -106 80 -148 43 -36 118 -62 151 -52
22 7 23 -4 13 -92 -5 -40 -11 -53 -23 -53 -10 0 -22 -5 -28 -11 -7 -7 -43 -10
-100 -7 -113 5 -191 38 -261 112 -68 72 -97 119 -128 211 -38 114 -39 237 -2
316 28 60 86 123 133 144 41 18 128 18 173 0z m1162 -180 c58 -30 47 -125 -17
-141 -82 -21 -129 105 -53 143 32 16 35 16 70 -2z m868 -22 c18 -25 15 -70 -8
-93 -63 -63 -148 33 -88 98 18 18 30 22 53 18 16 -4 36 -14 43 -23z m2842
-957 c72 -12 166 -38 230 -63 10 -4 -1 -11 -30 -20 -29 -10 -106 -17 -221 -20
l-177 -5 -4 53 c-2 30 -3 57 -1 62 6 11 111 8 203 -7z m-1204 -82 c48 -17 115
-81 141 -133 22 -47 29 -159 13 -230 -7 -31 -36 -112 -65 -181 -77 -185 -92
-319 -49 -459 7 -25 12 -47 10 -49 -9 -8 -65 29 -95 63 -118 135 -132 338 -35
533 72 146 75 234 11 288 -50 42 -101 33 -231 -43 -12 -7 -40 -13 -63 -13 -34
0 -46 5 -59 25 -14 21 -14 30 -4 55 25 59 127 125 234 150 77 19 128 17 192
-6z m-2796 -712 c-34 -69 -43 -128 -38 -240 4 -84 11 -122 33 -179 15 -40 31
-73 36 -73 5 0 12 12 15 28 13 53 84 181 134 241 28 33 74 78 103 99 49 36
146 87 152 80 32 -37 73 -175 92 -303 23 -163 6 -414 -38 -554 -46 -149 -129
-331 -150 -331 -4 0 -3 17 2 38 5 20 8 64 8 97 l0 60 -48 -125 c-149 -384
-164 -426 -169 -487 -2 -35 -9 -63 -13 -63 -5 0 -9 5 -9 10 0 6 -9 29 -20 53
-30 65 -50 163 -51 257 l-1 85 -24 -51 c-34 -72 -47 -155 -40 -247 l7 -79 -30
21 c-55 40 -132 133 -164 202 -35 74 -47 84 -48 42 -1 -28 -1 -27 -16 7 -8 19
-26 78 -40 130 -21 80 -25 121 -26 260 -2 146 -3 157 -11 98 -5 -38 -12 -68
-16 -68 -19 0 -35 134 -34 286 1 129 6 177 23 245 56 215 174 389 318 467 77
42 85 41 63 -6z m-551 -192 c-29 -113 -47 -264 -43 -365 7 -203 12 -249 64
-571 6 -33 10 -85 10 -115 0 -60 -25 -264 -39 -319 -19 -78 -99 -261 -118
-273 -5 -3 -7 65 -5 151 2 87 -1 195 -7 242 -6 47 -13 112 -16 145 -3 33 -11
94 -17 135 -7 41 -13 172 -13 290 0 203 2 222 29 335 32 134 91 293 139 372
17 29 32 51 33 50 2 -1 -6 -36 -17 -77z m2372 -2004 c41 -13 96 -39 148 -71 9
-5 32 -20 51 -32 56 -34 137 -53 227 -53 60 0 85 -4 89 -13 9 -25 -14 -64 -53
-88 -32 -20 -50 -24 -118 -23 -66 1 -94 7 -160 34 -127 52 -335 102 -335 81 0
-15 70 -89 124 -130 55 -42 95 -64 199 -106 37 -16 67 -31 67 -36 0 -19 -137
-54 -210 -53 -102 0 -167 22 -353 115 -177 89 -323 142 -537 193 -80 20 -163
41 -185 49 -39 14 -39 14 65 21 143 9 290 31 530 80 229 47 370 57 451 32z"/>
<path d="M5462 7515 c-26 -22 -32 -34 -32 -67 0 -57 14 -78 54 -78 50 0 117
-27 155 -63 l34 -32 -6 37 c-3 20 -16 58 -28 85 -13 26 -23 59 -24 72 0 29
-39 60 -86 67 -28 5 -41 1 -67 -21z"/>
<path d="M5812 7518 c-26 -16 -32 -25 -27 -42 8 -26 8 -25 -7 -109 -6 -37 -8
-70 -4 -75 4 -4 18 5 29 20 24 30 83 58 122 58 23 0 25 3 25 48 0 38 -6 55
-31 85 -35 43 -59 46 -107 15z"/>
<path d="M3469 8796 c-580 -236 -1103 -714 -1489 -1361 -196 -329 -334 -666
-405 -986 -73 -329 -103 -564 -105 -814 -1 -288 16 -441 91 -820 63 -319 190
-671 331 -918 101 -176 189 -299 203 -285 3 3 -5 39 -19 80 -53 163 -81 373
-72 530 13 208 55 388 122 521 14 26 20 47 15 47 -9 0 -30 74 -62 223 -50 234
-77 616 -60 852 40 582 194 1071 491 1564 133 221 350 494 439 553 19 13 30
34 42 86 54 218 281 534 499 693 32 23 57 46 54 51 -7 11 -10 10 -75 -16z"/>
<path d="M8000 5281 c-86 -23 -125 -41 -185 -88 -124 -95 -175 -263 -111 -360
66 -100 187 -109 262 -21 48 57 77 71 139 66 72 -6 135 -46 202 -128 66 -81
156 -260 182 -362 83 -324 33 -708 -138 -1063 -165 -343 -345 -571 -636 -806
-242 -195 -484 -326 -795 -430 -419 -140 -763 -178 -1175 -130 l-160 19 -98
-39 c-54 -22 -128 -55 -166 -73 -147 -74 -368 -243 -346 -264 17 -15 340 -100
483 -127 378 -70 756 -70 1157 1 61 11 264 60 355 85 336 96 781 336 1075 581
387 323 675 730 841 1187 69 190 124 504 124 706 -1 611 -337 1163 -762 1249
-97 20 -165 19 -248 -3z"/>
<path d="M2602 4901 c-84 -31 -134 -65 -195 -131 -64 -68 -105 -149 -138 -265
-18 -64 -23 -115 -26 -251 -6 -204 11 -339 62 -509 149 -491 417 -888 863
-1279 111 -97 136 -115 151 -106 68 36 118 45 251 45 99 -1 150 -6 190 -18 58
-19 210 -89 210 -97 0 -3 -57 -6 -128 -6 -174 -2 -299 -39 -425 -124 -212
-143 -302 -468 -182 -656 59 -91 152 -144 254 -144 82 0 198 65 216 120 6 19
7 19 55 -5 27 -14 56 -25 65 -25 11 0 15 -12 15 -48 0 -160 118 -294 272 -309
132 -12 241 33 354 145 69 69 82 89 154 236 107 218 158 287 290 392 127 101
262 173 500 269 433 175 540 223 708 319 35 20 66 36 68 36 14 0 257 169 340
237 198 160 408 400 493 560 18 34 14 36 -25 13 -220 -137 -481 -165 -729 -80
-266 92 -373 99 -610 39 -167 -42 -513 -218 -620 -316 -11 -10 -53 -45 -93
-77 -93 -75 -233 -224 -304 -324 -55 -75 -153 -232 -161 -255 -3 -10 -134 49
-160 73 -19 17 100 255 186 370 104 138 241 283 330 350 26 19 62 47 79 61
l31 26 -184 5 c-150 5 -206 11 -303 33 -266 60 -442 145 -658 317 -117 93
-271 270 -351 403 -41 69 -147 296 -175 375 -123 354 -142 396 -224 479 -88
90 -177 129 -308 137 -69 4 -95 1 -138 -15z m1497 -2843 c146 -36 230 -119
271 -271 16 -61 8 -225 -15 -290 -24 -66 -107 -152 -162 -166 -34 -9 -49 -9
-78 3 -45 19 -47 51 -4 92 59 55 109 201 109 315 l0 40 -45 -31 c-139 -96
-276 -130 -317 -80 -10 12 -18 29 -18 37 0 49 73 138 159 194 l45 29 -71 0
c-210 0 -350 -89 -387 -245 -12 -49 -33 -74 -71 -81 -124 -23 -146 173 -33
301 123 141 395 209 617 153z"/>
</g>
</svg>
